<svg width="77" height="76" viewBox="0 0 77 76" fill="none" xmlns="http://www.w3.org/2000/svg">
<path d="M6.89209 49.9803V53.5611C6.89209 55.5833 5.49342 56.8419 3.45338 56.8419C1.41335 56.8419 0 55.5833 0 53.5611V49.9803C0 47.9581 1.23576 46.6995 3.45338 46.6995C5.49195 46.6995 6.89209 47.9581 6.89209 49.9803ZM1.86099 50.0098V53.5315C1.86099 54.5197 2.44217 55.1653 3.45338 55.1653C4.46459 55.1653 5.03111 54.5212 5.03111 53.5315V50.0098C5.03111 49.0216 4.44992 48.3761 3.45338 48.3761C2.45685 48.3761 1.86099 49.0201 1.86099 50.0098Z" fill="#F7F6F3"/>
<path d="M9.47506 56.6912C9.3107 56.6912 9.20654 56.5863 9.20654 56.4209V47.1175C9.20654 46.9521 9.3107 46.8472 9.47506 46.8472H12.6159C14.5664 46.8472 15.9944 48.1205 15.9944 50.0379C15.9944 52.0602 14.5649 53.3336 12.6159 53.3336H11.0675V56.4194C11.0675 56.5849 10.9633 56.6897 10.8004 56.6897H9.47506V56.6912ZM12.4515 48.481H11.0675V51.7027H12.4515C13.4789 51.7027 14.1041 51.0734 14.1041 50.0852C14.1041 49.097 13.4789 48.4824 12.4515 48.4824V48.481Z" fill="#F7F6F3"/>
<path d="M17.5076 48.5267C17.3594 48.5267 17.2551 48.4219 17.2551 48.2564V47.1175C17.2551 46.9521 17.3594 46.8472 17.5076 46.8472H23.522C23.6703 46.8472 23.7744 46.9521 23.7744 47.1175V48.2564C23.7744 48.4219 23.6703 48.5267 23.522 48.5267H21.4527V56.4224C21.4527 56.5878 21.3337 56.6927 21.1856 56.6927H19.8602C19.6959 56.6927 19.5917 56.5878 19.5917 56.4224V48.5267H17.5076Z" fill="#F7F6F3"/>
<path d="M32.0799 49.9803V53.5611C32.0799 55.5833 30.6811 56.8419 28.6411 56.8419C26.6011 56.8419 25.1877 55.5833 25.1877 53.5611V49.9803C25.1877 47.9581 26.4235 46.6995 28.6411 46.6995C30.6797 46.6995 32.0799 47.9581 32.0799 49.9803ZM27.0488 50.0098V53.5315C27.0488 54.5197 27.6299 55.1653 28.6411 55.1653C29.6523 55.1653 30.2189 54.5212 30.2189 53.5315V50.0098C30.2189 49.0216 29.6376 48.3761 28.6411 48.3761C27.6446 48.3761 27.0488 49.0201 27.0488 50.0098Z" fill="#F7F6F3"/>
<path d="M38.0856 53.4709C37.9066 53.4709 37.773 53.3956 37.6982 53.2464L36.1205 50.3393V56.4224C36.1205 56.5878 36.0163 56.6927 35.8519 56.6927H34.6616C34.4972 56.6927 34.3931 56.5878 34.3931 56.4224V47.119C34.3931 46.9536 34.4972 46.8486 34.6616 46.8486H35.7932C35.9723 46.8486 36.1205 46.924 36.1953 47.0732L38.3395 51.2389L40.4236 47.0732C40.4985 46.924 40.6467 46.8486 40.8258 46.8486H41.9573C42.1055 46.8486 42.2259 46.9536 42.2259 47.119V56.4224C42.2259 56.5878 42.107 56.6927 41.9573 56.6927H40.6775C40.5293 56.6927 40.4251 56.5878 40.4251 56.4224V50.3245L38.9222 53.2464C38.8474 53.3956 38.6991 53.4709 38.5201 53.4709H38.0856Z" fill="#F7F6F3"/>
<path d="M50.4637 52.2567C50.4637 52.4059 50.3595 52.5107 50.2113 52.5107H46.8019V55.0132H50.7616C50.9261 55.0132 51.0287 55.118 51.0287 55.2834V56.4224C51.0287 56.5878 50.9246 56.6927 50.7616 56.6927H45.2095C45.0451 56.6927 44.9409 56.5878 44.9409 56.4224V47.119C44.9409 46.9536 45.0451 46.8486 45.2095 46.8486H50.6281C50.7925 46.8486 50.8967 46.9536 50.8967 47.119V48.2579C50.8967 48.4234 50.7925 48.5282 50.6281 48.5282H46.8019V50.8652H50.2113C50.361 50.8652 50.4637 50.97 50.4637 51.1355V52.2596V52.2567Z" fill="#F7F6F3"/>
<path d="M53.3887 48.5267C53.2405 48.5267 53.1362 48.4219 53.1362 48.2564V47.1175C53.1362 46.9521 53.2405 46.8472 53.3887 46.8472H59.4031C59.5513 46.8472 59.6555 46.9521 59.6555 47.1175V48.2564C59.6555 48.4219 59.5513 48.5267 59.4031 48.5267H57.3337V56.4224C57.3337 56.5878 57.2149 56.6927 57.0666 56.6927H55.7413C55.5769 56.6927 55.4742 56.5878 55.4742 56.4224V48.5267H53.3887Z" fill="#F7F6F3"/>
<path d="M63.7577 56.4224C63.7577 56.5878 63.6535 56.6927 63.4906 56.6927H62.1653C62.0009 56.6927 61.8967 56.5878 61.8967 56.4224V47.119C61.8967 46.9536 62.0009 46.8486 62.1653 46.8486H65.3354C67.2713 46.8486 68.6846 48.0629 68.6846 49.905C68.6846 51.1783 68.0887 52.137 67.1362 52.6467L68.6097 56.347C68.6846 56.542 68.5804 56.6912 68.4454 56.6912H66.9719C66.8075 56.6912 66.6886 56.6159 66.6152 56.4372L65.3046 53.0809H63.7562V56.4224H63.7577ZM65.1417 48.481H63.7577V51.4471H65.1417C66.169 51.4471 66.7943 50.8622 66.7943 49.9493C66.7943 49.0364 66.169 48.481 65.1417 48.481Z" fill="#F7F6F3"/>
<path d="M74.3275 56.4224C74.3275 56.5878 74.2239 56.6927 74.0755 56.6927H72.7504C72.5859 56.6927 72.4816 56.5878 72.4816 56.4224V52.7368L69.8323 47.088C69.7722 46.9536 69.847 46.8486 69.9968 46.8486H71.426C71.6052 46.8486 71.7242 46.924 71.7991 47.088L73.4518 50.908L75.1045 47.088C75.1794 46.9225 75.2977 46.8486 75.4755 46.8486H76.83C76.9637 46.8486 77.0386 46.9536 76.9798 47.088L74.331 52.7057V56.4209L74.3275 56.4224Z" fill="#F7F6F3"/>
<path d="M25.4387 41.5883C19.2628 41.5883 14.2375 36.5319 14.2375 30.3159C14.2375 24.0998 19.2628 19.0419 25.4387 19.0419C31.6146 19.0419 36.6383 24.0983 36.6383 30.3144C36.6383 36.5304 31.6146 41.5868 25.4387 41.5868V41.5883ZM25.4387 23.6965C21.8121 23.6965 18.8622 26.6657 18.8622 30.3159C18.8622 33.966 21.8121 36.9351 25.4387 36.9351C29.0652 36.9351 32.0152 33.966 32.0152 30.3159C32.0152 26.6657 29.0652 23.6965 25.4387 23.6965Z" fill="#F7F6F3"/>
<path d="M50.3581 41.5883C44.1822 41.5883 39.1584 36.5319 39.1584 30.3159C39.1584 24.0998 44.1822 19.0419 50.3581 19.0419C56.5339 19.0419 61.5577 24.0983 61.5577 30.3144C61.5577 36.5304 56.5339 41.5868 50.3581 41.5868V41.5883ZM50.3581 23.6965C46.7315 23.6965 43.7815 26.6657 43.7815 30.3159C43.7815 33.966 46.7315 36.9351 50.3581 36.9351C53.9847 36.9351 56.9346 33.966 56.9346 30.3159C56.9346 26.6657 53.9847 23.6965 50.3581 23.6965Z" fill="#F7F6F3"/>
<path d="M8.92773 21.6683H2.79441C2.66085 21.6683 2.55371 21.7776 2.55371 21.9106V26.3777C2.55371 26.5121 2.66232 26.6199 2.79441 26.6199H4.54678V38.7019C4.54678 38.8378 4.65539 38.9471 4.79041 38.9471H8.92773C9.06276 38.9471 9.17133 38.8378 9.17133 38.7019V21.9136C9.17133 21.7776 9.06276 21.6683 8.92773 21.6683Z" fill="#F7F6F3"/>
<path d="M71.6037 21.6683H65.4689C65.3354 21.6683 65.2283 21.7776 65.2283 21.9106V26.3777C65.2283 26.5121 65.3368 26.6199 65.4689 26.6199H67.2213V38.7019C67.2213 38.8378 67.33 38.9471 67.4649 38.9471H71.6023C71.7374 38.9471 71.8459 38.8378 71.8459 38.7019V21.9136C71.8459 21.7776 71.7374 21.6683 71.6023 21.6683H71.6037Z" fill="#F7F6F3"/>
</svg>
