<svg width="50" height="20" viewBox="0 0 50 20" fill="none" xmlns="http://www.w3.org/2000/svg">
<path d="M32.3904 10C32.3904 10.1758 32.3582 10.3428 32.2937 10.501C32.2292 10.6592 32.1326 10.7969 32.0037 10.9141L25.4646 17.4531C25.3474 17.5703 25.2097 17.6611 25.0515 17.7256C24.8933 17.79 24.7263 17.8223 24.5505 17.8223C24.3865 17.8223 24.2253 17.79 24.0671 17.7256C23.9089 17.6611 23.7712 17.5703 23.6541 17.4531L22.8982 16.6973C22.781 16.5801 22.6873 16.4424 22.6169 16.2842C22.5466 16.126 22.5115 15.959 22.5115 15.7832C22.5115 15.6191 22.5466 15.4551 22.6169 15.291C22.6873 15.127 22.781 14.9863 22.8982 14.8691L25.8513 11.9336H18.7673C18.4041 11.9336 18.1169 11.8047 17.906 11.5469C17.6951 11.2891 17.5896 10.9902 17.5896 10.6504V9.34961C17.5896 9.00977 17.6951 8.71094 17.906 8.45312C18.1169 8.19531 18.4041 8.06641 18.7673 8.06641H25.8513L22.8982 5.11328C22.781 4.99609 22.6873 4.8584 22.6169 4.7002C22.5466 4.54199 22.5115 4.38086 22.5115 4.2168C22.5115 4.04102 22.5466 3.87402 22.6169 3.71582C22.6873 3.55762 22.781 3.41992 22.8982 3.30273L23.6541 2.56445C23.7712 2.43555 23.9089 2.33887 24.0671 2.27441C24.2253 2.20996 24.3865 2.17773 24.5505 2.17773C24.7263 2.17773 24.8933 2.20996 25.0515 2.27441C25.2097 2.33887 25.3474 2.43555 25.4646 2.56445L32.0037 9.10352C32.1326 9.20898 32.2292 9.34082 32.2937 9.49902C32.3582 9.65723 32.3904 9.82422 32.3904 10Z" fill="#222222"/>
</svg>
