<svg width="50" height="20" viewBox="0 0 50 20" fill="none" xmlns="http://www.w3.org/2000/svg">
<path d="M32.3904 9.34961V10.6504C32.3904 10.9902 32.2849 11.2891 32.074 11.5469C31.863 11.8047 31.5759 11.9336 31.2126 11.9336H24.1287L27.0818 14.8867C27.199 15.0039 27.2927 15.1416 27.363 15.2998C27.4333 15.458 27.4685 15.6191 27.4685 15.7832C27.4685 15.959 27.4333 16.126 27.363 16.2842C27.2927 16.4424 27.199 16.5801 27.0818 16.6973L26.3259 17.4531C26.2087 17.5703 26.071 17.6611 25.9128 17.7256C25.7546 17.79 25.5935 17.8223 25.4294 17.8223C25.2537 17.8223 25.0867 17.79 24.9285 17.7256C24.7703 17.6611 24.6326 17.5703 24.5154 17.4531L17.9763 10.8965C17.8591 10.791 17.7654 10.6592 17.6951 10.501C17.6248 10.3428 17.5896 10.1758 17.5896 10C17.5896 9.82422 17.6248 9.65723 17.6951 9.49902C17.7654 9.34082 17.8591 9.20312 17.9763 9.08594L24.5154 2.56445C24.6326 2.43555 24.7703 2.33887 24.9285 2.27441C25.0867 2.20996 25.2537 2.17773 25.4294 2.17773C25.5935 2.17773 25.7546 2.20996 25.9128 2.27441C26.071 2.33887 26.2087 2.43555 26.3259 2.56445L27.0818 3.30273C27.199 3.41992 27.2927 3.55762 27.363 3.71582C27.4333 3.87402 27.4685 4.04102 27.4685 4.2168C27.4685 4.38086 27.4333 4.54492 27.363 4.70898C27.2927 4.87305 27.199 5.01367 27.0818 5.13086L24.1287 8.06641H31.2126C31.5759 8.06641 31.863 8.19531 32.074 8.45312C32.2849 8.71094 32.3904 9.00977 32.3904 9.34961Z" fill="#222222"/>
</svg>
