<svg width="19" height="16" viewBox="0 0 19 16" fill="none" xmlns="http://www.w3.org/2000/svg">
<path d="M5.14286 9.14286C5.14286 6.93214 6.93214 5.14286 9.14286 5.14286C11.3536 5.14286 13.1429 6.93214 13.1429 9.14286C13.1429 11.3536 11.3536 13.1429 9.14286 13.1429C6.93214 13.1429 5.14286 11.3536 5.14286 9.14286ZM9.14286 6.28571C7.56429 6.28571 6.28571 7.56429 6.28571 9.14286C6.28571 10.7214 7.56429 12 9.14286 12C10.7214 12 12 10.7214 12 9.14286C12 7.56429 10.7214 6.28571 9.14286 6.28571ZM12.9607 1.17214L13.3321 2.28571H16C17.2607 2.28571 18.2857 3.31071 18.2857 4.57143V13.7143C18.2857 14.975 17.2607 16 16 16H2.28571C1.02321 16 0 14.975 0 13.7143V4.57143C0 3.31071 1.02321 2.28571 2.28571 2.28571H4.95357L5.325 1.17214C5.55714 0.472143 6.21071 0 6.95 0H11.3357C12.075 0 12.7286 0.472143 12.9607 1.17214ZM2.28571 3.42857C1.65464 3.42857 1.14286 3.93929 1.14286 4.57143V13.7143C1.14286 14.3464 1.65464 14.8571 2.28571 14.8571H16C16.6321 14.8571 17.1429 14.3464 17.1429 13.7143V4.57143C17.1429 3.93929 16.6321 3.42857 16 3.42857H12.5107L11.8786 1.53357C11.8 1.30036 11.5821 1.14286 11.3357 1.14286H6.95C6.70357 1.14286 6.48571 1.30036 6.40714 1.53357L5.775 3.42857H2.28571Z" fill="#007A8A"/>
</svg>
